<?xml version="1.0" encoding="UTF-8" standalone="no"?>
<!-- Created with Inkscape (http://www.inkscape.org/) -->

<svg
   xmlns:dc="http://purl.org/dc/elements/1.1/"
   xmlns:cc="http://creativecommons.org/ns#"
   xmlns:rdf="http://www.w3.org/1999/02/22-rdf-syntax-ns#"
   xmlns:svg="http://www.w3.org/2000/svg"
   xmlns="http://www.w3.org/2000/svg"
   xmlns:sodipodi="http://sodipodi.sourceforge.net/DTD/sodipodi-0.dtd"
   xmlns:inkscape="http://www.inkscape.org/namespaces/inkscape"
   width="69mm"
   height="69mm"
   viewBox="0 0 69 69"
   version="1.1"
   id="svg8"
   inkscape:version="0.92.5 (2060ec1f9f, 2020-04-08)"
   sodipodi:docname="sw.svg">
  <defs
     id="defs2" />
  <sodipodi:namedview
     id="base"
     pagecolor="#ffffff"
     bordercolor="#666666"
     borderopacity="1.0"
     inkscape:pageopacity="0.0"
     inkscape:pageshadow="2"
     inkscape:zoom="1.7077652"
     inkscape:cx="396.85039"
     inkscape:cy="561.25984"
     inkscape:document-units="mm"
     inkscape:current-layer="layer1"
     showgrid="false"
     inkscape:window-width="3840"
     inkscape:window-height="2136"
     inkscape:window-x="0"
     inkscape:window-y="1080"
     inkscape:window-maximized="1" />
  <metadata
     id="metadata5">
    <rdf:RDF>
      <cc:Work
         rdf:about="">
        <dc:format>image/svg+xml</dc:format>
        <dc:type
           rdf:resource="http://purl.org/dc/dcmitype/StillImage" />
        <dc:title></dc:title>
      </cc:Work>
    </rdf:RDF>
  </metadata>
  <g
     inkscape:label="Layer 1"
     inkscape:groupmode="layer"
     id="layer1"
     transform="translate(0,-228)">
    <path
       style="fill:#ffffff;fill-opacity:0.94117647;stroke:#000000;stroke-width:1;stroke-linecap:butt;stroke-linejoin:miter;stroke-miterlimit:4;stroke-dasharray:none;stroke-opacity:1"
       d="m 8.8788994,277.36673 -4.4305743,-40.40083 21.4019259,1.12643 -1.051325,2.10265 1.426796,22.45324 4.50567,1.42679 4.505667,-1.65207 c 0,0 4.205291,1.42679 4.580765,1.42679 0.37547,0 3.754722,-1.35171 3.754722,-1.35171 l 2.327929,-22.22796 -2.327929,-2.17773 22.227964,-1.27661 -5.181519,40.7763 1.727174,0.45056 -1.201514,5.85737 -4.730951,-1.05132 -4.655857,3.30415 -4.730951,-2.40301 -7.133977,0.75094 -2.17774,1.27661 h -6.608312 l -2.703401,-2.40303 -4.280386,-1.20151 -7.659634,4.28039 -2.85359,-2.9287 -5.1815206,1.12643 -1.051321,-6.7585 z"
       id="path828"
       inkscape:connector-curvature="0" />
    <path
       style="fill:#aaddff;fill-opacity:0.8;stroke:#ffffff;stroke-width:1.34842539;stroke-linecap:butt;stroke-linejoin:miter;stroke-miterlimit:4;stroke-dasharray:none;stroke-opacity:1"
       d="M 8.2303975,251.25727 C 7.895802,241.23897 24.087465,236.38687 34.100773,235.92668 44.518885,235.44787 61.78476,238.92808 62.366548,249.34095 62.935964,259.5324 46.534282,265.02842 36.33648,265.46999 25.847877,265.92416 8.5808358,261.74985 8.2303975,251.25727 Z"
       id="path830"
       inkscape:connector-curvature="0"
       sodipodi:nodetypes="sssss" />
    <circle
       style="fill:#ffaaee;fill-opacity:1;stroke:#ffffff;stroke-width:1.94139266;stroke-miterlimit:4;stroke-dasharray:none;stroke-opacity:1"
       id="path842"
       cx="34.713234"
       cy="250.37383"
       r="10.691216" />
  </g>
</svg>
